 <svg width="30" height="30" viewBox="0 0 30 30" fill="none" xmlns="http://www.w3.org/2000/svg">
      <path fill-rule="evenodd" clip-rule="evenodd"
        d="M18.0105 14.9994L29.3775 26.3665C30.2087 27.1977 30.2087 28.5454 29.3775 29.3766C28.5463 30.2078 27.1987 30.2078 26.3675 29.3766L15.0005 18.0094L3.63345 29.3766C2.80225 30.2078 1.4546 30.2078 0.623402 29.3766C-0.207801 28.5454 -0.207801 27.1977 0.623402 26.3665L11.9904 14.9994L0.624665 3.63349C-0.206538 2.80228 -0.206538 1.45462 0.624665 0.623408C1.45587 -0.207803 2.80351 -0.207803 3.63472 0.623408L15.0005 11.9893L26.3662 0.623426C27.1974 -0.207785 28.5451 -0.207785 29.3763 0.623426C30.2075 1.45464 30.2075 2.8023 29.3763 3.63351L18.0105 14.9994Z"
        fill="#fff"></path>
    </svg>
